<svg fill="none" height="447" viewBox="0 0 480 447" width="480" xmlns="http://www.w3.org/2000/svg"><path d="m157.952 378.046v14.738c-7.242 0-14.483 0-21.725 0-4.418 0-8-3.581-8-8v-6.738z" fill="#f86734"/><path d="m128.152 368.322v9.908h29.725v-9.908z" fill="#f1d949"/><path d="m143.015 373.276c16.417 0 29.725-13.308 29.725-29.725s-13.308-29.725-29.725-29.725c-16.416 0-29.725 13.308-29.725 29.725s13.309 29.725 29.725 29.725z" fill="#f1d949"/><path d="m143.04 296.486v9.735" stroke="#f86734" stroke-linecap="round" stroke-linejoin="round" stroke-miterlimit="10" stroke-width="4.95415"/><path d="m190.228 343.378h-9.821" stroke="#f86734" stroke-linecap="round" stroke-linejoin="round" stroke-miterlimit="10" stroke-width="4.95415"/><path d="m176.344 310.271-6.391 6.391" stroke="#f86734" stroke-linecap="round" stroke-linejoin="round" stroke-miterlimit="10" stroke-width="4.95415"/><path d="m395.986 106.217v-2.332h-2.331v2.332zm32.193 39.95 2.084 1.044.001-.001zm-6.125 12.229v2.331h1.44l.644-1.287zm-17.397 0-2.086-1.04-1.681 3.371h3.767zm8.671-17.397 2.087 1.04 1.68-3.371h-3.767zm-60.839-34.782v-2.332h-2.332v2.332zm35.272 8.714-2.332-.005v.005zm-2.622 31.269-2.078-1.059-.001.004zm-6.213 12.239v2.332h1.431l.648-1.276zm-17.647 0-2.08-1.052-1.711 3.384h3.791zm8.802-17.407 2.081 1.052 1.71-3.383h-3.791zm51.984-37.147h-26.079v4.663h26.079zm11.035 11.036c0-6.097-4.939-11.036-11.035-11.036v4.663c3.521 0 6.372 2.851 6.372 6.373zm0 20.301v-20.301h-4.663v20.301zm-2.836 11.988c1.858-3.716 2.836-7.827 2.836-11.988h-4.663c0 3.433-.807 6.83-2.343 9.902zm-6.126 12.23 6.125-12.229-4.169-2.088-6.125 12.229zm-19.481 1.287h17.397v-4.663h-17.397zm6.585-20.768-8.671 17.397 4.173 2.08 8.671-17.397zm-6.552 3.372h8.638v-4.663h-8.638zm-11.035-11.036c0 6.097 4.938 11.036 11.035 11.036v-4.663c-3.521 0-6.373-2.851-6.373-6.373zm0-26.078v26.078h4.662v-26.078zm-14.718-2.332h-26.448v4.663h26.448zm11.155 11.052c.014-6.145-5.027-11.052-11.155-11.052v4.663c3.62 0 6.5 2.883 6.492 6.378zm0 20.318v-20.324h-4.663v20.324zm-2.876 12.003c1.898-3.725 2.876-7.841 2.876-12.003h-4.663c0 3.432-.806 6.822-2.368 9.886zm-6.211 12.237 6.213-12.24-4.158-2.11-6.213 12.239zm-19.726 1.276h17.647v-4.663h-17.647zm6.722-20.791-8.802 17.407 4.161 2.104 8.802-17.407zm-6.678 3.383h8.758v-4.662h-8.758zm-11.166-11.046c0 6.125 5.022 11.046 11.166 11.046v-4.662c-3.626 0-6.503-2.891-6.503-6.384zm0-26.1v26.1h4.663v-26.1z" fill="#d7effe"/><g clip-rule="evenodd" fill-rule="evenodd"><path d="m220.206 331.381h199.686c7.078 0 12.816-5.74 12.816-12.82v-126.935h-212.502c-7.078 0-12.816 5.74-12.816 12.82v114.115c0 7.08 5.738 12.82 12.816 12.82z" fill="#4285f4"/><path d="m432.708 313.544v45.379l-37.035-27.39-6.608-30.757z" fill="#4285f4"/><path d="m303.173 250.79h-199.686c-7.0779 0-12.8157-5.739-12.8157-12.82v-126.935h212.5017c7.078 0 12.816 5.74 12.816 12.82v114.115c0 7.081-5.738 12.82-12.816 12.82z" fill="#3ddc84"/><path d="m90.6713 233.908v70.948l38.9337-53.052 4.709-30.597z" fill="#3ddc84"/><path d="m57.4392 70.4888h-23.4741c4.0545-9.0801 13.1052-15.6625 23.6338-15.6494 8.4772 0 16.0086 4.0972 20.7394 10.4334h59.9557v23.2987c0 4.4182-3.582 8-8 8h-51.9568c-4.7286 6.3335-12.2563 10.4325-20.7383 10.4325-10.5286 0-19.5793-6.569-23.6338-15.6494h15.4741c4.4183 0 8-3.5818 8-8z" fill="#d7effe"/><path d="m219.135 213.003c-2.044 0-4.089-.741-5.645-2.223-1.509-1.436-2.339-3.345-2.339-5.376 0-2.03.83-3.94 2.339-5.376l19.464-18.532c.457-.435.457-1.144 0-1.58l-19.464-18.532c-1.509-1.436-2.339-3.345-2.339-5.376s.83-3.94 2.339-5.376c3.113-2.964 8.178-2.964 11.292 0l31.584 30.074-31.584 30.074c-1.557 1.482-3.602 2.223-5.647 2.223" fill="#00b975"/><path d="m184.759 210.781-31.586-30.073 31.586-30.072c1.508-1.436 3.513-2.227 5.646-2.227 2.132 0 4.137.791 5.645 2.227 1.509 1.436 2.339 3.345 2.339 5.376 0 2.03-.83 3.939-2.338 5.376l-19.463 18.53c-.222.211-.344.492-.344.79s.122.578.344.789l19.463 18.532c1.508 1.436 2.338 3.345 2.338 5.376s-.83 3.94-2.338 5.376c-1.557 1.482-3.602 2.222-5.646 2.222-2.045 0-4.09-.74-5.646-2.222z" fill="#00b975"/></g></svg>