<?xml version="1.0" standalone="no"?><!DOCTYPE svg PUBLIC "-//W3C//DTD SVG 1.1//EN" "http://www.w3.org/Graphics/SVG/1.1/DTD/svg11.dtd"><svg t="1659154878735" class="icon" viewBox="0 0 1024 1024" version="1.1" xmlns="http://www.w3.org/2000/svg" p-id="3413" xmlns:xlink="http://www.w3.org/1999/xlink" width="200" height="200"><defs><style type="text/css">@font-face { font-family: feedback-iconfont; src: url("//at.alicdn.com/t/font_1031158_u69w8yhxdu.woff2?t=1630033759944") format("woff2"), url("//at.alicdn.com/t/font_1031158_u69w8yhxdu.woff?t=1630033759944") format("woff"), url("//at.alicdn.com/t/font_1031158_u69w8yhxdu.ttf?t=1630033759944") format("truetype"); }
</style></defs><path d="M827.446642 727.549335h-80.351338v-155.002256c0-32.799081-1.717712-54.027541-5.13146-63.654674a44.548518 44.548518 0 0 0-16.758075-22.435012 47.68411 47.68411 0 0 0-27.895204-8.019601c-13.911478 0-26.358114 3.802085-37.448282 11.45683-11.057656 7.611395-18.672664 17.713563-22.742069 30.306503-4.096499 12.594746-6.142942 35.880486-6.142942 69.78136v137.56685H550.625935V423.817812h74.640081v44.620767c26.50803-34.334365 59.854395-51.468133 100.078832-51.468133 17.758718 0 33.938804 3.186166 48.614311 9.55669 14.686345 6.404843 25.812637 14.529204 33.319272 24.45075 7.542759 9.91974 12.811492 21.159824 15.73395 33.75457 2.935101 12.594746 4.436067 30.602722 4.436067 54.07089l-0.001806 188.745989zM197.680437 727.549335V308.279575h310.875109v70.910245H282.319732v92.980402h210.491026v70.659181H282.319732v114.062557h234.255414v70.657375h-318.85136z" fill="#979898" p-id="3414"></path><path d="M0.000903 921.600181V102.398013C0.000903 45.843575 45.846285 0 102.398916 0h819.193137c56.563469 0 102.407044 45.843575 102.407044 102.398013v819.202168c0 56.554438-45.843575 102.398013-102.407044 102.398013H102.398916C45.846285 1024 0.000903 978.154618 0.000903 921.600181z m947.196072 0V102.398013c0-14.139061-11.460442-25.595891-25.606729-25.595891H102.39711c-14.137255 0-25.595891 11.45683-25.595891 25.595891v819.202168c0 14.137255 11.458636 25.595891 25.595891 25.59589h819.193136c14.146286 0 25.606728-11.458636 25.606729-25.59589z" fill="#979898" p-id="3415"></path></svg>
